<svg width="43" height="42" viewBox="0 0 43 42" fill="none" xmlns="http://www.w3.org/2000/svg">
<g id="Iconsax/Bold/facebook">
<path id="Vector" d="M39 28.3325C39 34.7025 35.2025 38.5 28.8325 38.5H26.75C25.7875 38.5 25 37.7125 25 36.75V26.6525C25 26.18 25.385 25.7775 25.8575 25.7775L28.9375 25.725C29.1825 25.7075 29.3925 25.5325 29.445 25.2875L30.0575 21.945C30.0694 21.8692 30.0647 21.7918 30.0438 21.718C30.0229 21.6443 29.9862 21.5759 29.9363 21.5177C29.8864 21.4594 29.8244 21.4127 29.7547 21.3808C29.685 21.3488 29.6092 21.3323 29.5325 21.3325L25.805 21.385C25.315 21.385 24.93 21 24.9125 20.5275L24.8425 16.24C24.8425 15.96 25.07 15.715 25.3675 15.715L29.5675 15.645C29.865 15.645 30.0925 15.4175 30.0925 15.12L30.0225 10.92C30.0225 10.6225 29.795 10.395 29.4975 10.395L24.7725 10.465C24.0828 10.4755 23.4019 10.622 22.7688 10.8961C22.1358 11.1702 21.5631 11.5665 21.0835 12.0623C20.6039 12.5582 20.2269 13.1438 19.9741 13.7856C19.7212 14.4274 19.5975 15.1128 19.61 15.8025L19.6975 20.615C19.715 21.105 19.33 21.49 18.84 21.5075L16.74 21.5425C16.4425 21.5425 16.215 21.77 16.215 22.0675L16.2675 25.3925C16.2675 25.69 16.495 25.9175 16.7925 25.9175L18.8925 25.8825C19.3825 25.8825 19.7675 26.2675 19.785 26.74L19.9425 36.715C19.96 37.695 19.1725 38.5 18.1925 38.5H14.1675C7.7975 38.5 4 34.7025 4 28.315V13.6675C4 7.2975 7.7975 3.5 14.1675 3.5H28.8325C35.2025 3.5 39 7.2975 39 13.6675V28.3325Z" fill="white"/>
</g>
</svg>
