<svg width="43" height="42" viewBox="0 0 43 42" fill="none" xmlns="http://www.w3.org/2000/svg">
<g id="Iconsax/Bold/instagram">
<path id="Vector" d="M29.0825 3.5H14.4175C8.0475 3.5 4.25 7.2975 4.25 13.6675V28.315C4.25 34.7025 8.0475 38.5 14.4175 38.5H29.065C35.435 38.5 39.2325 34.7025 39.2325 28.3325V13.6675C39.25 7.2975 35.4525 3.5 29.0825 3.5ZM21.75 27.79C18.005 27.79 14.96 24.745 14.96 21C14.96 17.255 18.005 14.21 21.75 14.21C25.495 14.21 28.54 17.255 28.54 21C28.54 24.745 25.495 27.79 21.75 27.79ZM32.11 12.04C32.0225 12.25 31.9 12.4425 31.7425 12.6175C31.5675 12.775 31.375 12.8975 31.165 12.985C30.8465 13.1202 30.495 13.1574 30.1552 13.092C29.8155 13.0265 29.503 12.8613 29.2575 12.6175C29.1 12.4425 28.9775 12.25 28.89 12.04C28.8001 11.8297 28.7525 11.6037 28.75 11.375C28.75 11.1475 28.8025 10.92 28.89 10.71C28.9775 10.4825 29.1 10.3075 29.2575 10.1325C29.66 9.73 30.2725 9.5375 30.8325 9.66C30.955 9.6775 31.06 9.7125 31.165 9.765C31.27 9.8 31.375 9.8525 31.48 9.9225C31.5675 9.975 31.655 10.0625 31.7425 10.1325C31.9 10.3075 32.0225 10.4825 32.11 10.71C32.1975 10.92 32.25 11.1475 32.25 11.375C32.25 11.6025 32.1975 11.83 32.11 12.04Z" fill="white"/>
</g>
</svg>
