<svg width="64" height="25" viewBox="0 0 64 25" fill="none" xmlns="http://www.w3.org/2000/svg">
<path d="M0 0H6.04456L12.0602 9.53611V0H18.6253V20.51H12.5808L6.56514 10.9445V20.51H0V0Z" fill="white"/>
<path d="M20.646 0H26.6905L31.8096 10.8565L36.9287 0H42.9732V20.51H36.6395V12.9104L32.9086 20.51H30.7106L26.9798 12.9104V20.51H20.646V0Z" fill="white"/>
<path d="M44.9919 0H52.7428C54.9794 0 56.9364 0.410787 58.6138 1.23236C60.3105 2.05393 61.6216 3.22761 62.5471 4.75338C63.4726 6.27916 63.9353 8.07879 63.9353 10.1523C63.9353 13.5559 62.9327 16.138 60.9275 17.8985C58.9416 19.6395 56.2133 20.51 52.7428 20.51H44.9919V0ZM53.2055 14.0548C55.712 14.0548 56.9653 12.7539 56.9653 10.1523C56.9653 8.95905 56.6375 8.04945 55.982 7.42349C55.3264 6.77797 54.4009 6.45521 53.2055 6.45521H51.8462V14.0548H53.2055Z" fill="white"/>
<path d="M0.0169823 22.9116H21.3899V25H0.0169823V22.9116Z" fill="#D63C3C"/>
<path d="M21.322 22.9116H42.695V25H21.322V22.9116Z" fill="#3E4660"/>
<path d="M42.627 22.9116H64V25H42.627V22.9116Z" fill="#3C7AD6"/>
</svg>
