<svg width="117" height="45" viewBox="0 0 117 45" fill="none" xmlns="http://www.w3.org/2000/svg">
<g id="Logo">
<path d="M0 0H11.0502L22.0475 17.165V0H34.0494V36.9179H22.9992L12.0019 19.7001V36.9179H0V0Z" fill="black"/>
<path d="M37.7434 0H48.7936L58.1519 19.5417L67.5103 0H78.5605V36.9179H66.9815V23.2388L60.1611 36.9179H56.1428L49.3224 23.2388V36.9179H37.7434V0Z" fill="black"/>
<path d="M82.2507 0H96.4204C100.509 0 104.087 0.739416 107.153 2.21825C110.255 3.69708 112.652 5.80969 114.344 8.55609C116.036 11.3025 116.882 14.5418 116.882 18.2741C116.882 24.4007 115.049 29.0484 111.383 32.2174C107.753 35.3511 102.765 36.9179 96.4204 36.9179H82.2507V0ZM97.2663 25.2986C101.849 25.2986 104.14 22.9571 104.14 18.2741C104.14 16.1263 103.54 14.489 102.342 13.3623C101.144 12.2003 99.4517 11.6194 97.2663 11.6194H94.7814V25.2986H97.2663Z" fill="black"/>
<path d="M0.0310457 41.2409H39.1035V45H0.0310457V41.2409Z" fill="#D63C3C"/>
<path d="M38.9793 41.2409H78.0517V45H38.9793V41.2409Z" fill="#3E4660"/>
<path d="M77.9276 41.2409H117V45H77.9276V41.2409Z" fill="#3C7AD6"/>
</g>
</svg>
