<svg width="22" height="22" viewBox="0 0 22 22" fill="white" xmlns="http://www.w3.org/2000/svg">
<path id="Vector" d="M15.5294 22C16.0099 22 16.4707 21.8091 16.8105 21.4693C17.1503 21.1296 17.3412 20.6687 17.3412 20.1882C17.3412 19.7077 17.1503 19.2469 16.8105 18.9071C16.4707 18.5674 16.0099 18.3765 15.5294 18.3765C15.0489 18.3765 14.5881 18.5674 14.2483 18.9071C13.9085 19.2469 13.7176 19.7077 13.7176 20.1882C13.7176 20.6687 13.9085 21.1296 14.2483 21.4693C14.5881 21.8091 15.0489 22 15.5294 22ZM7.24706 22C7.72757 22 8.1884 21.8091 8.52817 21.4693C8.86794 21.1296 9.05882 20.6687 9.05882 20.1882C9.05882 19.7077 8.86794 19.2469 8.52817 18.9071C8.1884 18.5674 7.72757 18.3765 7.24706 18.3765C6.76655 18.3765 6.30572 18.5674 5.96595 18.9071C5.62618 19.2469 5.43529 19.7077 5.43529 20.1882C5.43529 20.6687 5.62618 21.1296 5.96595 21.4693C6.30572 21.8091 6.76655 22 7.24706 22ZM3.71671 2.78494L3.50965 5.32141C3.46823 5.808 3.85129 6.21176 4.33788 6.21176H20.1882C20.6231 6.21176 20.9854 5.88047 21.0165 5.44565C21.1511 3.61318 19.7534 2.12235 17.9209 2.12235H5.19718C5.09365 1.66682 4.88659 1.232 4.56565 0.869647C4.048 0.320941 3.32329 0 2.57788 0H0.776471C0.352 0 0 0.352 0 0.776471C0 1.20094 0.352 1.55294 0.776471 1.55294H2.57788C2.89882 1.55294 3.19906 1.68753 3.41647 1.91529C3.63388 2.15341 3.73741 2.464 3.71671 2.78494ZM19.9398 7.76471H4.05835C3.62353 7.76471 3.27153 8.096 3.23012 8.52047L2.85741 13.024C2.82187 13.4413 2.87335 13.8614 3.00859 14.2577C3.14384 14.6541 3.3599 15.018 3.6431 15.3265C3.9263 15.635 4.27047 15.8813 4.65382 16.0499C5.03716 16.2185 5.45134 16.3057 5.87012 16.3059H17.3826C18.9355 16.3059 20.3021 15.0325 20.416 13.4795L20.7576 8.64471C20.7675 8.53192 20.7536 8.41832 20.7168 8.31124C20.68 8.20417 20.6212 8.10599 20.5441 8.02306C20.4671 7.94014 20.3735 7.87429 20.2694 7.82979C20.1652 7.78529 20.053 7.76312 19.9398 7.76471Z" fill="white"/>
</svg>
