<svg width="10" height="12" viewBox="0 0 10 12" fill="none" xmlns="http://www.w3.org/2000/svg">
<path d="M9.64533 2.22036C8.82035 2.1311 7.99538 2.06416 7.16528 2.01395V2.00837L7.05255 1.28312C6.97569 0.769874 6.86296 0 5.66393 0H4.32142C3.12751 0 3.01478 0.736402 2.9328 1.27755L2.82519 1.99163C2.34866 2.0251 1.87212 2.05858 1.39558 2.10879L0.350269 2.22036C0.135058 2.24268 -0.0186641 2.44909 0.00183212 2.67782C0.0223284 2.90656 0.206795 3.07392 0.422006 3.0516L1.46732 2.94003C4.15233 2.64993 6.85784 2.76151 9.57359 3.05718H9.61458C9.8093 3.05718 9.97839 2.8954 9.99889 2.67782C10.0066 2.56638 9.97391 2.45608 9.90782 2.37057C9.84173 2.28506 9.7475 2.23113 9.64533 2.22036ZM8.7025 3.84379C8.57952 3.70432 8.41043 3.62622 8.23621 3.62622H1.75939C1.58517 3.62622 1.41095 3.70432 1.2931 3.84379C1.17524 3.98326 1.10863 4.17294 1.11888 4.3682L1.43657 10.0921C1.49294 10.94 1.56467 12 3.35297 12H6.64262C8.43092 12 8.50266 10.9456 8.55903 10.0921L8.87672 4.37378C8.88697 4.17294 8.82035 3.98326 8.7025 3.84379ZM5.84839 9.20502H4.14208C3.93199 9.20502 3.75777 9.01534 3.75777 8.78661C3.75777 8.55788 3.93199 8.3682 4.14208 8.3682H5.84839C6.05848 8.3682 6.2327 8.55788 6.2327 8.78661C6.2327 9.01534 6.05848 9.20502 5.84839 9.20502ZM6.27881 6.9735H3.71678C3.50669 6.9735 3.33248 6.78382 3.33248 6.55509C3.33248 6.32636 3.50669 6.13668 3.71678 6.13668H6.27881C6.4889 6.13668 6.66312 6.32636 6.66312 6.55509C6.66312 6.78382 6.4889 6.9735 6.27881 6.9735Z" fill="white"/>
</svg>
