<svg width="14" height="14" viewBox="0 0 14 14" fill="none" xmlns="http://www.w3.org/2000/svg">
<path d="M8.16666 1.70341V6.55091C8.16666 7.14592 7.68249 7.63008 7.08749 7.63008H1.74999C1.42916 7.63008 1.16666 7.36758 1.16666 7.04675V3.31925C1.16666 2.12925 2.12916 1.16675 3.31916 1.16675H7.62416C7.92749 1.16675 8.16666 1.40591 8.16666 1.70341Z" fill="#3E4660"/>
<path d="M12.5417 9.04175C12.705 9.04175 12.8333 9.17008 12.8333 9.33341V9.91675C12.8333 10.8851 12.0517 11.6667 11.0833 11.6667C11.0833 10.7042 10.2958 9.91675 9.33332 9.91675C8.37082 9.91675 7.58332 10.7042 7.58332 11.6667H6.41666C6.41666 10.7042 5.62916 9.91675 4.66666 9.91675C3.70416 9.91675 2.91666 10.7042 2.91666 11.6667C1.94832 11.6667 1.16666 10.8851 1.16666 9.91675V8.75008C1.16666 8.42925 1.42916 8.16675 1.74999 8.16675H7.29166C7.67843 8.16675 8.04936 8.0131 8.32285 7.73961C8.59634 7.46612 8.74999 7.09519 8.74999 6.70841V3.50008C8.74999 3.17925 9.01249 2.91675 9.33332 2.91675H9.82332C10.2433 2.91675 10.6283 3.14425 10.8383 3.50591L11.2117 4.15925C11.2642 4.25258 11.1942 4.37508 11.0833 4.37508C10.6965 4.37508 10.3256 4.52873 10.0521 4.80222C9.77864 5.07571 9.62499 5.44664 9.62499 5.83341V7.58341C9.62499 7.97019 9.77864 8.34112 10.0521 8.61461C10.3256 8.8881 10.6965 9.04175 11.0833 9.04175H12.5417Z" fill="#3E4660"/>
<path d="M4.66667 12.8333C4.97609 12.8333 5.27283 12.7104 5.49162 12.4916C5.71042 12.2728 5.83333 11.9761 5.83333 11.6667C5.83333 11.3572 5.71042 11.0605 5.49162 10.8417C5.27283 10.6229 4.97609 10.5 4.66667 10.5C4.35725 10.5 4.0605 10.6229 3.84171 10.8417C3.62292 11.0605 3.5 11.3572 3.5 11.6667C3.5 11.9761 3.62292 12.2728 3.84171 12.4916C4.0605 12.7104 4.35725 12.8333 4.66667 12.8333ZM9.33333 12.8333C9.64275 12.8333 9.9395 12.7104 10.1583 12.4916C10.3771 12.2728 10.5 11.9761 10.5 11.6667C10.5 11.3572 10.3771 11.0605 10.1583 10.8417C9.9395 10.6229 9.64275 10.5 9.33333 10.5C9.02391 10.5 8.72717 10.6229 8.50838 10.8417C8.28958 11.0605 8.16667 11.3572 8.16667 11.6667C8.16667 11.9761 8.28958 12.2728 8.50838 12.4916C8.72717 12.7104 9.02391 12.8333 9.33333 12.8333ZM12.8333 7.30917V8.16667H11.0833C10.7625 8.16667 10.5 7.90417 10.5 7.58333V5.83333C10.5 5.5125 10.7625 5.25 11.0833 5.25H11.8358L12.6817 6.73167C12.7808 6.90667 12.8333 7.105 12.8333 7.30917Z" fill="#3E4660"/>
</svg>
